<?xml version="1.0" encoding="iso-8859-1"?>
<!-- Generator: Adobe Illustrator 19.0.0, SVG Export Plug-In . SVG Version: 6.00 Build 0)  -->
<svg  version="1.1" id="Capa_1" xmlns="http://www.w3.org/2000/svg" xmlns:xlink="http://www.w3.org/1999/xlink" x="0px" y="0px"
	 viewBox="0 0 490.4 490.4" style="enable-background:new 0 0 490.4 490.4;" xml:space="preserve">
<g>
	<path fill="#aaaaaa" d="M99.15,147.2v51.2h-3.4c-21.5,0-38.9,17.4-38.9,38.9v214.2c0,21.5,17.4,38.9,38.9,38.9h298.9c21.5,0,38.9-17.4,38.9-38.9
		V237.3c0-21.5-17.4-38.9-38.9-38.9h-1v-51.2c0-81.2-66-147.2-147.2-147.2C165.15,0,99.15,66.1,99.15,147.2z M268.15,354
		c-3,2.2-3.8,4.4-3.8,7.8c0.1,15.7,0.1,31.4,0.1,47.1l0,0c0.3,6.5-3,12.9-8.8,15.9c-13.8,7-27.5-2.8-27.5-15.8v-0.1
		c0-15.8,0-31.5,0.1-47.3c0-3.2-0.7-5.3-3.5-7.4c-14.3-10.5-18.9-28.4-11.8-44.2c6.9-15.4,23.8-24.3,39.8-21.1
		c17.7,3.6,30.1,17.9,30.2,35.6C283.05,336.7,278.05,346.8,268.15,354z M163.55,147.2c0-45.7,37.2-82.8,82.8-82.8
		c45.7,0,82.8,37.2,82.8,82.8v51.2h-165.6V147.2z"/>
</g>
<g>
</g>
<g>
</g>
<g>
</g>
<g>
</g>
<g>
</g>
<g>
</g>
<g>
</g>
<g>
</g>
<g>
</g>
<g>
</g>
<g>
</g>
<g>
</g>
<g>
</g>
<g>
</g>
<g>
</g>
</svg>
