<?xml version="1.0" encoding="UTF-8" standalone="no"?>
<!-- Created with Inkscape (http://www.inkscape.org/) -->

<svg
   xmlns:dc="http://purl.org/dc/elements/1.1/"
   xmlns:cc="http://creativecommons.org/ns#"
   xmlns:rdf="http://www.w3.org/1999/02/22-rdf-syntax-ns#"
   xmlns:svg="http://www.w3.org/2000/svg"
   xmlns="http://www.w3.org/2000/svg"
   xmlns:sodipodi="http://sodipodi.sourceforge.net/DTD/sodipodi-0.dtd"
   xmlns:inkscape="http://www.inkscape.org/namespaces/inkscape"
   width="3000"
   height="1518.1371"
   viewBox="0 0 3000 1518.1371"
   id="svg2"
   version="1.1"
   inkscape:version="0.91 r13725"
   sodipodi:docname="Meryl Streep Signature.svg">
  <title
     id="title4160">Meryl Streep Signature</title>
  <defs
     id="defs4" />
  <sodipodi:namedview
     id="base"
     pagecolor="#ffffff"
     bordercolor="#666666"
     borderopacity="1.0"
     inkscape:pageopacity="0.0"
     inkscape:pageshadow="2"
     inkscape:zoom="0.10857433"
     inkscape:cx="221.31823"
     inkscape:cy="1199.9028"
     inkscape:document-units="px"
     inkscape:current-layer="layer1"
     showgrid="false"
     inkscape:showpageshadow="false"
     fit-margin-top="20"
     fit-margin-left="20"
     fit-margin-right="20"
     fit-margin-bottom="20"
     inkscape:window-width="1366"
     inkscape:window-height="715"
     inkscape:window-x="-8"
     inkscape:window-y="-8"
     inkscape:window-maximized="1"
     units="px" />
  <metadata
     id="metadata7">
    <rdf:RDF>
      <cc:Work
         rdf:about="">
        <dc:format>image/svg+xml</dc:format>
        <dc:type
           rdf:resource="http://purl.org/dc/dcmitype/StillImage" />
        <dc:title>Meryl Streep Signature</dc:title>
      </cc:Work>
    </rdf:RDF>
  </metadata>
  <g
     inkscape:label="Capa 1"
     inkscape:groupmode="layer"
     id="layer1"
     transform="translate(296.99999,544.70339)">
    <path
       style="color:#000000;font-style:normal;font-variant:normal;font-weight:normal;font-stretch:normal;font-size:medium;line-height:normal;font-family:sans-serif;text-indent:0;text-align:start;text-decoration:none;text-decoration-line:none;text-decoration-style:solid;text-decoration-color:#000000;letter-spacing:normal;word-spacing:normal;text-transform:none;direction:ltr;block-progression:tb;writing-mode:lr-tb;baseline-shift:baseline;text-anchor:start;white-space:normal;clip-rule:nonzero;display:inline;overflow:visible;visibility:visible;opacity:1;isolation:auto;mix-blend-mode:normal;color-interpolation:sRGB;color-interpolation-filters:linearRGB;solid-color:#000000;solid-opacity:1;fill:#000000;fill-opacity:1;fill-rule:evenodd;stroke:none;stroke-width:3.5;stroke-linecap:round;stroke-linejoin:round;stroke-miterlimit:4;stroke-dasharray:none;stroke-dashoffset:0;stroke-opacity:1;color-rendering:auto;image-rendering:auto;shape-rendering:auto;text-rendering:auto;enable-background:accumulate"
       d="m 1882.3659,-523.73133 c -10.9187,-2.03163 -22.3224,-1.18065 -32.4049,5.45776 -20.9799,13.81333 -24.9985,36.31432 -29.6337,53.11025 -8.0063,29.01056 -5.0948,57.99328 -2.7752,83.81432 4.6459,51.71704 22.4672,98.69446 30.3642,144.56841 4.7221,27.43202 8.8873,54.98639 12.5995,82.60783 -14.5306,34.34933 -29.5451,68.481172 -44.311,101.719341 -34.0083,76.553122 -73.0804,151.331509 -110.5134,227.406919 -39.7882,80.86145 -76.2143,162.66865 -119.5262,239.97089 -30.4877,54.41403 -48.2427,89.64013 -79.7784,129.25274 -9.626,12.09124 -26.1043,29.35585 -32.9988,32.58084 -6.8946,3.22498 -11.601,3.62 -14.6677,2.55107 -2.3241,-0.80956 -4.9037,-3.30952 -8.0815,-10.2599 -3.1777,-6.95045 -5.8441,-16.79315 -9.5408,-26.6331 -15.223,-40.52077 -21.3468,-85.48488 -23.7187,-130.42684 -1.1901,-22.55113 0.9462,-45.6803 3.1639,-68.96054 19.7563,-53.11705 40.1957,-106.061 61.3138,-158.84364 37.4344,-93.563434 80.5471,-185.4655533 119.01,-279.98784 20.3644,-50.04496 46.8586,-100.3148 60.7574,-156.56421 2.8987,-11.73148 8.1378,-25.94636 11.4094,-41.43663 3.2716,-15.49025 4.6382,-33.30629 -3.3659,-50.44678 -9.381,-20.08937 -28.888,-31.90117 -49.9382,-33.35816 -31.5024,-2.18046 -56.2317,17.81258 -74.2436,33.68516 -27.7776,24.4786 -42.1855,57.71323 -56.0356,86.16755 -21.1125,43.37458 -35.1063,89.36117 -46.9182,134.76557 -17.1304,65.848275 -27.0354,133.006582 -35.221,199.581631 -6.7524,54.918109 -7.5603,109.449089 -11.4492,162.742669 -2.3052,31.59131 -6.5282,64.07273 -9.7673,97.0892 -12.0272,32.47569 -24.118,64.9314 -35.1446,97.82819 -3.647,10.88076 -6.2557,21.77113 -9.6732,32.6912 -7.9346,-22.23136 -17.84,-42.66277 -24.2273,-61.18315 -7.1689,-20.78664 -15.2962,-39.38719 -18.2716,-57.14928 -2.937,-17.53311 -1.4935,-64.25795 -1.4935,-64.25795 0.8079,-18.61192 -24.3173,-25.20001 -32.7457,-8.58628 0,0 -42.715,84.12895 -69.2351,126.30348 -5.5503,8.82653 -24.4724,33.10538 -33.9745,44.92939 2.8863,-16.27744 18.4491,-65.05434 20.2531,-77.66353 5.474,-38.25289 18.9611,-76.53024 8.2694,-91.45635 -6.5136,-9.09302 -24.1367,-18.46375 -33.4703,-2.40049 0,0 -36.472,62.7401 -54.2986,94.97341 -14.404,26.04486 -24.3183,45.28473 -41.8314,78.26021 13.3952,-74.90148 36.295,-149.40745 49.624,-227.41538 5.326,-31.17022 25.1439,-70.43788 12.5314,-112.57893 -1.9907,-6.65122 -5.0035,-14.121565 -10.2339,-21.264209 -5.2306,-7.142562 -13.9063,-15.056985 -26.4087,-15.742726 -1.8238,-0.100255 -3.3675,0.492676 -5.1202,0.578996 6.5117,-25.378702 13.4531,-50.648525 18.618,-76.3569594 6.3003,-31.3609546 21.1005,-68.4503586 12.4073,-108.3331616 -5.2185,-23.94223 -17.5072,-46.20891 -43.146,-60.94832 -22.9245,-13.17898 -47.7146,-7.20973 -65.6117,-3.18187 -39.25137,8.8331 -71.74325,25.18836 -101.79597,45.8199 -52.03933,35.725871 -100.253,78.4877 -140.64138,127.4679734 C 736.34936,26.014438 716.44404,57.954179 698.09326,90.627887 688.21872,77.750358 677.20248,65.716409 663.32163,56.265038 618.19805,25.540615 561.73391,28.873686 515.65237,27.830246 460.81378,26.588428 406.22024,35.868589 354.31002,49.944029 270.15432,72.762736 190.89028,109.80192 114.77503,149.12329 c -87.989273,45.45547 -162.044555,94.45586 -241.42299,153.27534 -56.25624,41.68593 -134.13125,118.67442 -140.84813,126.67218 -19.67899,23.43165 -6.02977,46.91683 15.77493,27.05218 7.72062,-7.03368 83.84266,-82.84715 135.82087,-121.36301 78.071739,-57.85122 160.450157,-110.3801 246.56652,-154.86806 75.2741,-38.88675 152.39361,-74.74985 232.69707,-96.524039 49.68493,-13.472153 101.10765,-22.052697 151.50581,-20.911442 47.65344,1.079094 96.57746,0.395796 128.95346,22.440456 14.3285,9.756224 25.91241,24.186155 35.9813,40.443785 -5.84921,11.39993 -12.41221,22.59356 -17.92656,34.02665 -26.44905,54.83811 -47.52788,112.43984 -63.29715,171.1307 -22.52166,83.8223 -35.8761,169.89905 -44.10444,255.72094 -5.60741,58.48479 -12.66509,122.35633 -3.14936,187.20325 1.85711,12.65575 7.51179,29.74302 15.15577,45.67935 3.822,7.96806 8.57898,15.76719 15.60881,22.29085 7.0297,6.52372 16.99512,11.53023 28.00732,11.94539 10.77432,0.40628 20.91024,-4.00475 27.95763,-9.99649 7.04722,-5.99187 11.76947,-13.20046 15.72156,-20.46381 7.90409,-14.52659 14.1775,-29.7952 17.64506,-39.66718 25.10181,-71.46217 44.37699,-137.32248 58.15945,-205.18721 15.03634,-74.03799 26.91864,-149.81331 28.56079,-226.36549 1.15833,-54.00158 4.05957,-112.50306 -14.35615,-168.07837 -6.32655,-19.09251 -14.88063,-39.19118 -24.70436,-58.53885 20.11387,-37.602712 41.65015,-74.152645 68.11617,-106.248681 38.0711,-46.170032 83.89321,-86.888637 133.52689,-120.962919 29.45866,-20.22384 58.62072,-33.56232 89.7938,-40.57735 16.6977,-3.75759 32.9331,-5.0701 40.7503,-0.57607 11.8196,6.79492 22.5728,20.03298 26.5557,38.30665 5.7875,26.551782 -5.4161,58.829833 -12.508,94.13145 -7.0467,35.07568 -15.8893,69.863836 -25.4725,104.465609 -2.7159,2.793848 -6.2177,5.025655 -8.5517,7.921291 -12.4846,15.48753 -22.2601,32.827 -31.0271,43.61526 -34.18727,42.06841 -59.57194,89.60719 -83.4883,136.00312 -33.48081,64.95053 -63.91665,132.38332 -86.16814,202.77047 -10.90081,34.48112 -21.37574,61.26794 -24.5697,91.34235 -2.58817,24.36961 18.64895,29.55634 33.53316,21.29206 14.88428,-8.26415 21.16803,-19.43705 32.78541,-34.57121 24.86531,-32.39252 45.40301,-67.55308 63.79574,-103.05816 38.24343,-73.82515 69.90413,-150.90044 97.33423,-228.94451 13.8524,-39.4133 26.5345,-79.37372 37.9068,-119.73607 3.8609,-2.63029 7.5845,-3.87249 11.4731,-3.87837 -0.1865,-0.19722 0.04,-0.0918 0.9848,-0.0399 -0.3328,-0.0182 -0.6548,0.0393 -0.9848,0.0399 0.1524,0.16116 0.5436,0.47721 1.3539,1.5838 1.8016,2.4602 3.9065,7.03604 5.013,10.73307 7.5547,25.2421 -6.9793,58.6503 -13.4998,96.81174 -13.3648,78.21685 -38.2129,155.8933 -51.7943,237.4225 -4.9072,29.46008 -12.222,68.27264 -13.4869,82.13885 -1.7219,18.87743 30.2889,31.50413 39.0935,14.71711 6.4674,-12.3305 53.6849,-109.79547 82.8541,-162.53783 4.0534,-7.32916 7.1623,-12.46165 12.6046,-22.03319 -1.4264,12.44583 -3.2905,22.60791 -5.6198,33.78264 -5.6413,27.06901 -19.8408,62.55941 -20.2047,80.44969 -0.508,24.98389 26.5447,46.35178 47.8715,24.28495 12.4353,-12.86697 35.9959,-48.89393 57.56,-83.18701 16.0063,-25.45481 24.8995,-44.27511 39.6531,-72.28489 0.2416,1.94246 0.059,4.31542 0.3617,6.12285 3.9497,23.57897 13.2018,43.87676 19.6995,62.71685 11.0826,32.13447 28.018,58.32489 31.7176,83.83293 1.9941,13.74876 2.6332,27.75204 2.8313,41.83122 -11.8833,41.77136 -24.3261,83.74843 -36.931,124.82127 -15.6424,50.97108 -37.3085,101.93179 -49.8996,157.06916 -8.86,38.79844 -19.9483,72.29888 -15.9251,111.76809 1.138,11.16408 20.3501,25.2437 31.7784,11.11377 7.8617,-9.72024 31.2,-47.43232 43.6378,-78.05262 21.9536,-54.04725 35.3507,-111.02402 44.7712,-167.56612 8.333,-50.01542 17.8176,-102.32698 17.528,-155.28475 9.6633,-33.82883 18.8826,-68.26328 29.9656,-101.32836 0.5598,-1.67009 1.2233,-3.31144 1.786,-4.98077 3.3753,38.44553 9.1962,77.29429 23.1002,114.30398 2.7395,7.29227 5.5065,18.01555 10.4614,28.85293 4.9549,10.83739 13.218,23.35073 28.1756,28.56443 14.7727,5.14918 29.2528,1.49218 40.7455,-3.88358 11.4927,-5.37588 28.583,-23.1324 40.2784,-37.16195 35.1364,-42.14924 60.0125,-89.09766 88.0285,-139.10015 44.352,-79.15891 80.9995,-161.5553 120.3927,-241.61428 37.1831,-75.56719 76.2576,-154.553363 109.9239,-233.820221 7.2669,-17.109993 14.2239,-34.182381 21.0127,-51.304729 1.0688,9.70192 2.1584,19.406106 3.1209,29.119751 3.2598,32.89949 4.9699,64.80401509 7.5321,99.298301 1.2336,16.607282 2.109,34.740233 3.8662,50.99558 -37.55,43.663448 -75.9158,86.484388 -112.3998,132.739148 -24.0983,30.55205 -39.888,52.04755 -69.2243,94.33348 -7.753,11.17522 -8.8233,24.04036 -7.4407,35.27499 1.3825,11.23472 8.0166,24.24495 16.0872,33.73464 10.4289,12.26269 23.1259,22.10849 39.691,27.51034 24.8601,8.10666 53.2966,12.07216 78.9462,3.49176 24.9886,-8.35893 41.9964,-26.50939 56.6011,-46.33847 17.8834,-24.2808 21.0873,-52.0056 26.3805,-77.06568 7.7473,-36.67859 9.9976,-73.02707 9.6142,-107.99244 -0.3119,-28.45516 0.6789,-57.04289 -2.2885,-84.459012 12.2822,-14.490789 24.9712,-28.436342 36.7279,-43.535049 3.3987,-4.364913 8.521,-11.953126 12.1275,-16.669044 -5.2145,12.625801 -11.4262,24.695699 -15.4894,37.914611 -9.4013,30.585444 -15.5559,63.175964 -15.135,96.142054 0.1784,14.03146 -2.3959,35.33645 11.5271,54.14493 9.2727,12.52655 17.5105,25.12144 37.5998,22.42475 16.311,-2.18954 30.4472,-14.39267 38.2885,-23.72151 7.8414,-9.32875 17.3092,-17.98275 22.426,-23.14003 16.4269,-16.55676 41.4565,-46.81276 57.2997,-65.34446 -0.7794,6.81227 -4.9902,23.36978 -3.8679,35.07727 0.7275,7.58639 1.5431,14.65834 6.7786,21.83275 5.2355,7.1744 13.1072,14.37545 24.429,16.50561 14.5836,2.74448 26.9063,-3.86191 35.3945,-10.13065 8.4882,-6.26875 15.1088,-13.10443 19.9231,-16.84444 25.8245,-20.06198 46.58,-44.53046 65.9662,-68.17976 12.2404,-14.931977 21.7043,-30.391794 30.4968,-43.973159 5.006,6.320106 10.4737,13.618502 11.7678,16.517436 6.1507,13.778368 6.488,33.000773 9.6279,54.646663 2.0838,14.36614 2.6951,28.20484 4.4879,42.36724 -7.2235,8.98622 -14.6777,17.99443 -21.5572,26.79956 -21.251,27.19924 -40.8373,56.04289 -57.6373,86.52059 -21.6356,39.25023 -43.607,80.52125 -56.0963,125.99536 -10.5801,38.52198 -26.8787,84.24094 -14.1179,130.27043 6.5902,23.77088 21.6275,48.48624 47.2236,59.91093 19.9685,8.91277 41.3946,5.08972 58.2987,-3.64967 24.8254,-12.83476 38.0844,-36.76519 47.992,-56.60347 16.0044,-32.0459 19.1685,-66.60854 23.768,-97.2805 10.5224,-70.16763 14.7108,-141.4431 13.181,-212.2654 -0.3622,-16.76973 -3.3214,-32.62373 -5.1428,-48.98661 13.4827,-15.98868 34.1385,-33.50177 49.7025,-45.64948 39.1952,-30.5918 77.7649,-52.256188 124.9702,-68.37199 33.822,-11.546695 67.9518,-22.30534 97.0862,-16.92195 7.7834,1.438029 16.4554,3.75066 22.5694,6.741198 22.3628,10.094787 -1.5751,37.366132 -8.5522,45.391052 -13.3883,14.63763 -28.4299,24.91498 -45.6971,38.14369 -25.2782,19.36602 -47.7929,34.90294 -74.5696,46.99756 -20.1637,9.10778 -30.9004,15.59625 -63.678,18.72555 -24.5009,2.3391 -27.1415,23.72325 0.068,24.91895 33.0965,1.45434 41.9491,-0.1823 78.1021,-13.80164 33.9194,-12.77791 61.9079,-31.25762 83.7832,-48.22021 17.1167,-13.11328 37.292,-26.68227 51.2945,-44.45837 7.6298,-9.686 13.3683,-21.07891 16.9987,-32.86251 3.7058,-12.028437 9.4757,-22.245669 4.5218,-37.478315 -4.6894,-14.419086 -16.2075,-23.159078 -27.0564,-28.465573 -10.8491,-5.306515 -22.0843,-7.941315 -31.4775,-9.676945 -41.1919,-7.611328 -80.7266,6.643697 -114.5857,18.203058 -50.7837,17.337546 -92.642,40.721921 -135.0703,73.837275 -9.8626,7.69774 -24.6074,19.30697 -33.1409,28.0384 -0.6207,-4.29046 -0.7668,-8.8701 -1.3852,-13.13305 -2.6236,-18.08713 -2.0741,-40.911071 -12.2894,-63.794446 -4.8911,-10.956716 -12.6777,-20.309318 -19.5511,-28.412796 -6.8734,-8.103478 -12.9188,-14.312475 -12.9188,-14.312475 -7.8023,-7.998812 -21.0253,-6.624355 -27.0158,2.808124 0,0 -27.2156,42.507888 -41.178,59.540577 -19.0799,23.275506 -38.3429,45.612196 -60.4345,62.774266 -7.7533,6.02309 -14.0519,12.48235 -19.2539,16.3242 -5.2018,3.84166 -7.3596,4.16943 -8.4158,3.97075 0.369,0.0684 -0.9565,-0.30453 -2.8484,-2.89653 -1.8917,-2.59238 -3.7602,-6.8437 -4.5729,-10.17427 -2.1644,-8.86954 5.0168,-24.21671 10.8449,-44.79353 8.7365,-30.846237 34.9298,-95.729446 34.9298,-95.729446 8.2516,-20.32092833 -21.0425,-34.010431 -31.3371,-14.6440997 0,0 -38.4468,71.8020977 -60.2868,101.2850157 -17.7998,24.02866 -39.9281,45.90583 -62.3604,68.5155 -9.0082,9.0794 -16.0843,15.94918 -21.8441,22.80174 -9.7881,10.30402 -15.3082,11.1984 -24.0457,5.43038 -3.8493,-5.19998 -4.5356,-18.15634 -4.7369,-33.99308 -0.3599,-28.33552 4.9984,-57.50913 13.6116,-85.523632 14.9721,-48.708492 37.5819,-95.494623 63.4404,-142.482244 14.4811,-26.313786 36.4295,-61.080004 58.8771,-95.344584 21.8387,-9.56532 44.406,-18.47078 67.0117,-27.92265 40.6818,-17.01001 78.9548,-31.38716 120.8811,-45.12828 44.0602,-14.44055 88.3669,-28.87635 132.7984,-42.53814 18.1999,-5.59606 16.7864,-26.58525 -2.1654,-26.5031 -2.1331,-0.20731 -4.2862,-0.018 -6.3499,0.56051 0,0 -86.3382,21.37086 -132.9832,36.65856 -42.7731,14.01868 -83.9853,27.62446 -125.537,44.99812 -6.2204,2.60086 -12.5841,5.17612 -18.8953,7.75198 28.7576,-42.45122 52.5348,-76.26176 52.734,-76.55452 l 0.2293,-0.3355 0,-0.0191 c 12.1519,-18.88871 -15.4091,-37.71852 -28.5876,-19.53124 l -0.022,0.0161 c 0,0 -54.4604,68.16202 -80.8886,107.82776 -3.4319,5.15091 -6.9219,10.96995 -10.5563,17.2504 -17.4082,8.17735 -34.6108,17.18656 -51.2225,27.68179 -18.1562,11.47103 -35.6211,25.1882 -50.4588,41.77312 -16.5056,18.449316 -32.0219,46.686272 -32.0219,46.686272 -11.4795,20.277502 20.9828,35.305136 32.0917,14.822299 0,0 16.1402,-27.673548 25.7416,-38.405626 11.9749,-13.384917 26.6636,-25.082785 42.4619,-35.133575 -22.8023,37.068884 -56.3127,85.652556 -113.6557,151.187305 -4.7515,5.430272 -9.6652,11.166882 -14.2203,16.788004 -0.4471,-4.896639 -1.1293,-9.941994 -1.4911,-14.813017 -2.47,-33.2528769 -5.8003,-68.523889 -9.2388,-103.227365 -2.8951,-29.21845 -6.6327,-58.308147 -10.8939,-87.327307 12.2316,-32.80401 24.1989,-65.96609 36.4796,-100.0824 13.1289,-36.47327 22.7621,-66.25877 30.9679,-106.55054 4.4814,-22.00782 3.3288,-44.36057 2.7911,-59.80362 -0.5101,-14.64481 -14.3854,-14.91565 -15.4464,-0.19407 -1.4666,20.34942 -3.5251,30.37144 -6.5789,45.40987 -7.4022,36.3445 -19.6081,70.07895 -32.9676,107.19284 -7.3535,20.42831 -15.2943,41.01053 -23.505,61.61314 -1.8285,-11.0867 -3.667,-22.17559 -5.576,-33.2649 -8.6519,-50.25958 -21.7771,-95.69656 -25.8591,-141.13583 -2.3143,-25.76168 -4.1028,-50.59244 1.6687,-71.5059 4.2903,-15.54526 9.4017,-26.57246 16.4436,-31.20892 5.3518,-3.5238 17.2016,-5.74138 23.15,-4.22208 7.5841,1.93744 12.9007,5.47147 18.7428,12.74908 7.2403,9.01929 10.7691,13.42081 16.0776,20.19312 8.8148,11.24499 20.9782,5.78493 16.3085,-5.87209 -4.2008,-10.48624 -6.0124,-17.38613 -13.1074,-27.21702 -10.6611,-14.77229 -19.9132,-21.33663 -30.2332,-26.07245 -5.8109,-2.66665 -12.1816,-4.91509 -18.7327,-6.13406 z m -265.0309,180.66994 c 7.1958,0.49851 18.339,7.90328 20.9377,13.46828 3.4084,7.29902 3.4352,16.57709 0.8896,28.62961 -2.5454,12.05257 -7.5964,25.82747 -11.1678,40.2812 -12.5615,50.83659 -37.9961,99.71298 -59.2077,151.83959 -38.0082,93.404997 -75.494,176.357068 -113.4268,271.16623 -5.9233,14.80487 -23.7608,61.78565 -29.6376,76.62863 2.6896,-45.62511 10.5513,-114.11417 15.9637,-158.13459 8.1165,-66.012041 17.8692,-131.644567 34.3716,-195.07868 11.564,-44.45152 25.0084,-88.22614 44.5308,-128.33417 14.1603,-29.09158 27.5672,-57.50301 47.8065,-75.33857 16.1229,-14.20813 35.0534,-26.08871 48.94,-25.12753 z m 268.9915,476.60912 c 1.341,15.46327 3.0277,30.99429 3.1946,46.21288 0.383,34.93596 0.576,69.17626 -6.1235,100.89432 -5.1828,24.53768 -11.1965,48.09204 -23.3752,64.62737 -11.1129,15.08808 -29.9703,31.13488 -46.1076,36.53296 -17.2397,5.76694 -34.2911,4.91435 -52.0944,0.0528 -11.785,-3.21819 -19.6989,-6.65583 -27.5941,-13.07357 -5.5969,-4.54956 -12.0679,-10.10619 -13.0606,-17.25026 -0.9955,-7.16446 6.6877,-18.47526 7.8949,-20.21521 29.1532,-42.02227 44.1832,-62.4789 67.9548,-92.61681 28.1949,-35.74563 58.7216,-70.28155 89.3111,-105.16448 z m 427.4349,97.16275 c 0.1859,3.7953 1.1443,7.76194 1.226,11.54255 1.4895,68.95637 -2.582,138.26118 -12.7942,206.35896 -4.7667,31.78867 -8.2952,62.49757 -20.5103,86.95605 -9.0102,18.0412 -20.125,34.69138 -32.9112,41.30177 -8.8007,4.54999 -21.8087,5.66815 -28.2645,2.78664 -11.8651,-5.2959 -23.6,-21.77107 -27.9697,-37.53248 -8.9473,-32.27403 3.1986,-72.02177 14.1388,-111.85503 11.1419,-40.5679 31.6031,-79.54443 53.0415,-118.43695 15.6156,-28.32901 33.9887,-55.38267 54.0436,-81.12151 z M 1008.6416,193.94847 c -2.7508,8.12935 -4.9855,16.41478 -7.8309,24.51044 -27.03073,76.9083 -58.09594,152.50269 -95.40057,224.51546 -14.27977,27.56534 -33.92426,63.62531 -51.34764,88.6899 2.66464,-12.17957 5.4475,-25.17624 9.56837,-37.34505 22.92698,-67.70241 50.99822,-133.4711 83.91877,-197.33477 18.59086,-36.06501 38.62896,-70.72197 61.09197,-103.03598 z M 698.2181,164.64823 c 4.15581,10.08009 9.29583,19.55045 12.69659,29.8131 15.72847,47.46543 13.76528,101.9271 12.59581,156.45125 -1.57567,73.4541 -13.03567,147.21358 -27.86148,220.21477 -13.92591,68.57114 -31.44639,130.81039 -55.28314,196.77877 -4.99286,13.81817 -11.39092,28.11523 -16.9976,38.41961 -2.80323,5.15212 -5.71077,8.89931 -7.74783,10.63127 -2.03717,1.73204 -2.43577,1.82455 -4.2305,1.75684 -2.25956,-0.0851 -3.38105,-0.52501 -5.73501,-2.70765 -2.35361,-2.1842 -5.29273,-6.35757 -7.94227,-11.88143 -5.2992,-11.04784 -10.96505,-26.40777 -13.03775,-40.0221 -8.07291,-53.02641 -1.62263,-112.98925 4.28247,-174.57963 8.09877,-84.4701 21.20225,-168.66269 43.07072,-250.05379 15.23409,-56.699 35.58679,-112.26917 61.04361,-165.0499 1.60472,-3.32712 3.52085,-6.45399 5.14638,-9.77111 z"
       id="path4147"
       inkscape:connector-curvature="0"
       sodipodi:nodetypes="csssscsssssccsscssssssssssscscssccsccccscsscccssscsscsssssssssssscssssscscssssscsssscsccsssssssscccccsscscsccsssccsscsssssscsccssssssscsscssssscssscscscssssccscssscsscssssssssscsscccssssscsssssssccssccssscccsccssccscscsssccssccccccscssccscscsscsccscscsscccscssscccscssscssssccssssssscsccscssscssccsscssccssssssccsssssc" />
  </g>
</svg>
